<svg xmlns="http://www.w3.org/2000/svg" width="16" height="16.462" viewBox="0 0 16 16.462">
  <g id="Group_30" data-name="Group 30" transform="translate(-117.991 -444)">
    <path id="Path_95" data-name="Path 95" d="M43.525,3.763a3.763,3.763,0,1,0-3.763,3.763,3.763,3.763,0,0,0,3.763-3.763Zm-3.763,4.3A4.287,4.287,0,0,1,38.606,7.9h0l-.723,5.885a.269.269,0,0,0,.129.263l1.605.961a.269.269,0,0,0,.275,0l1.62-.961a.269.269,0,0,0,.13-.264L40.919,7.9h0a4.287,4.287,0,0,1-1.157.159Z" transform="translate(85.762 444)" fill="#fff"/>
    <g id="Path_96" data-name="Path 96" transform="translate(118 452.466)" fill="none">
      <path d="M8,0a9.281,9.281,0,0,1,4.964,1.5C15.488,3.612,15.991,8,15.991,8H0A8.711,8.711,0,0,1,1.994,2.127C3.1.87,6.277,0,8,0Z" stroke="none"/>
      <path d="M 7.995219707489014 1.200003623962402 C 6.427800178527832 1.200003623962402 3.673449516296387 2.033553600311279 2.893759727478027 2.921353816986084 C 1.756843566894531 4.208841323852539 1.374459266662598 5.768062591552734 1.249608039855957 6.795743942260742 L 14.53562259674072 6.795743942260742 C 14.20828437805176 5.487032890319824 13.52149391174316 3.533572196960449 12.18620014190674 2.418503761291504 C 11.2894401550293 1.66356372833252 9.140850067138672 1.200003623962402 7.995219707489014 1.200003623962402 M 7.995219707489014 3.814697265625e-06 C 9.187520027160645 3.814697265625e-06 11.72357940673828 0.4604239463806152 12.95903015136719 1.500494003295898 C 15.48798942565918 3.612343788146973 15.99096965789795 7.995743751525879 15.99096965789795 7.995743751525879 L -0.000530242919921875 7.995743751525879 C -0.000530242919921875 7.995743751525879 -0.2517099380493164 4.670483589172363 1.994270324707031 2.127053737640381 C 3.098549842834473 0.8696436882019043 6.277420043945312 3.814697265625e-06 7.995219707489014 3.814697265625e-06 Z" stroke="none" fill="#fff"/>
    </g>
  </g>
</svg>
