<svg xmlns="http://www.w3.org/2000/svg" width="16" height="16" viewBox="0 0 16 16">
  <path id="Path_83" data-name="Path 83" d="M7.545,3.909a.727.727,0,1,0,.727.727A.727.727,0,0,0,7.545,3.909Zm-2.909,0a.727.727,0,1,0,.727.727A.727.727,0,0,0,4.636,3.909Zm5.818,0a.727.727,0,1,0,.727.727A.727.727,0,0,0,10.455,3.909ZM14.818,1H3.182A2.182,2.182,0,0,0,1,3.182V14.818A2.182,2.182,0,0,0,3.182,17H14.818A2.182,2.182,0,0,0,17,14.818V3.182A2.182,2.182,0,0,0,14.818,1Zm.727,13.818a.727.727,0,0,1-.727.727H3.182a.727.727,0,0,1-.727-.727V8.273H15.545Zm0-8H2.455V3.182a.727.727,0,0,1,.727-.727H14.818a.727.727,0,0,1,.727.727Z" transform="translate(-1 -1)" fill="#fff"/>
</svg>
