<svg xmlns="http://www.w3.org/2000/svg" width="15" height="20.455" viewBox="0 0 15 20.455">
  <g id="Group_15" data-name="Group 15" transform="translate(-6 -1)">
    <g id="Group_23" data-name="Group 23" transform="translate(1)">
      <path id="Path_69" data-name="Path 69" d="M19.952,5.548V5.486a.73.73,0,0,0-.13-.191h0L15.732,1.2h0a.73.73,0,0,0-.191-.13.218.218,0,0,0-.061,0A.6.6,0,0,0,15.268,1H5.682A.682.682,0,0,0,5,1.682V20.773a.682.682,0,0,0,.682.682H19.318A.682.682,0,0,0,20,20.773V5.732A.893.893,0,0,0,19.952,5.548Zm-2.277-.457H15.909V3.325Zm.961,15H6.364V2.364h8.182V5.773a.682.682,0,0,0,.682.682h3.409Z" fill="#fff"/>
      <path id="Path_70" data-name="Path 70" d="M8.727,12.273A.694.694,0,0,0,9.383,13h7.87a.731.731,0,0,0,0-1.455H9.383A.694.694,0,0,0,8.727,12.273Zm.656,3.636h5.9a.731.731,0,0,0,0-1.455h-5.9a.731.731,0,0,0,0,1.455ZM16.6,17.364H9.383a.731.731,0,0,0,0,1.455H16.6a.731.731,0,0,0,0-1.455Z" transform="translate(-0.818 -1.977)" fill="#fff"/>
    </g>
  </g>
</svg>
