<svg xmlns="http://www.w3.org/2000/svg" width="14.923" height="17.637" viewBox="0 0 14.923 17.637">
  <path id="Icon_ionic-md-notifications-outline" data-name="Icon ionic-md-notifications-outline" d="M13.129,6.447a6.129,6.129,0,0,1,1.014.19,4.321,4.321,0,0,1,3.293,4.233v5.41l.4.4.33.332H8.012l.33-.332.4-.4v-5.41a4.321,4.321,0,0,1,3.293-4.233,7.505,7.505,0,0,1,1.014-.19m.042-3.072A1.3,1.3,0,0,0,11.77,4.7v.617a5.716,5.716,0,0,0-4.389,5.556v4.85L5.625,17.484v.882H20.548v-.882l-1.756-1.764v-4.85A5.716,5.716,0,0,0,14.4,5.315V4.7a1.3,1.3,0,0,0-1.317-1.323Zm1.756,15.873H11.331a1.756,1.756,0,1,0,3.511,0Z" transform="translate(-5.625 -3.375)" fill="#fff"/>
</svg>
