<svg xmlns="http://www.w3.org/2000/svg" width="16" height="16" viewBox="0 0 16 16">
  <g id="Group_24" data-name="Group 24" transform="translate(-1 -1)">
    <path id="Path_79" data-name="Path 79" d="M15.913,12.064h-2.1a.534.534,0,0,1-.462-.8,2.952,2.952,0,1,0-5.114,0,.533.533,0,0,1-.462.8H2.087A1.088,1.088,0,0,1,1,10.977V2.087A1.088,1.088,0,0,1,2.087,1H15.913A1.088,1.088,0,0,1,17,2.087v8.89A1.088,1.088,0,0,1,15.913,12.064ZM14.624,11h.817l.02-8.91-.02.538H2.632l-.02,8.353,4.344.017a4.019,4.019,0,1,1,7.668,0Z" fill="#fff"/>
    <path id="Path_80" data-name="Path 80" d="M15.844,17.995a4.018,4.018,0,1,1,4.018-4.018A4.023,4.023,0,0,1,15.844,17.995Zm0-6.969a2.951,2.951,0,1,0,2.951,2.951A2.955,2.955,0,0,0,15.844,11.026Z" transform="translate(-5.052 -4.181)" fill="#fff"/>
    <circle id="Ellipse_7" data-name="Ellipse 7" cx="1.6" cy="1.6" r="1.6" transform="translate(9.191 8.196)" fill="#fff"/>
    <path id="Path_81" data-name="Path 81" d="M22.461,25.747a.533.533,0,0,1-.377-.156l-3.2-3.2a.533.533,0,0,1,.347-.909,2.939,2.939,0,0,0,2.389-1.474.533.533,0,0,1,.839-.111l2.656,2.656a.533.533,0,0,1-.377.91H22.994v1.747a.533.533,0,0,1-.533.533Zm-2.112-3.4,1.579,1.579v-.993a.533.533,0,0,1,.533-.533h.993l-1.3-1.3A3.993,3.993,0,0,1,20.349,22.348Z" transform="translate(-8.274 -8.747)" fill="#fff"/>
    <path id="Path_82" data-name="Path 82" d="M9.139,18.742a.533.533,0,0,1-.533-.533V16.462H6.859a.533.533,0,0,1-.377-.91L9.138,12.9a.533.533,0,0,1,.839.111,2.94,2.94,0,0,0,2.389,1.474.533.533,0,0,1,.347.909l-3.2,3.2A.533.533,0,0,1,9.139,18.742Zm-.993-3.347h.993a.533.533,0,0,1,.533.533v.993l1.578-1.579A3.994,3.994,0,0,1,9.441,14.1Z" transform="translate(-1.742 -1.742)" fill="#fff"/>
  </g>
</svg>
