<svg xmlns="http://www.w3.org/2000/svg" width="629.164" height="139.389" viewBox="0 0 629.164 139.389">
  <g id="MATRICS_HORIZONTAL_BLUE" data-name="MATRICS HORIZONTAL BLUE" transform="translate(-0.289 -0.05)">
    <g id="Group_67" transform="translate(0.289 0.05)">
      <path id="Subtraction_13" d="M1020.82,184.689,1020.5,45.3l80.793,46.954-39.853,23.413h0l.128,45.546C1061.5,161.149,1020.82,184.689,1020.82,184.689Z" transform="translate(-1020.5 -45.3)" fill="#003768"/>
      <path id="Subtraction_12" d="M1203.767,184.689h0l-40.684-23.541.128-45.546-39.405,22.9L1084.4,115.666,1204.087,45.3l-.32,139.389Z" transform="translate(-1043.524 -45.3)" fill="#009ddc"/>
    </g>
    <g id="Group_77" data-name="Group 77" transform="translate(205.464 17.011)">
      <path id="Path_222" data-name="Path 222" d="M318.522,131.3c-4.158-19.639-14.393-68.127-17.272-87.318.96,15.928.832,69.407.768,87.318H288.2V29.4h20.982c2.943,14.841,14.649,66.72,15.992,80.41,1.215-13.434,13.05-65.952,15.864-80.41h21.238V131.3H348.459c-.064-18.231-.128-71.006.64-87.318-2.687,18.935-13.242,68-17.272,87.318Z" transform="translate(-288.2 -27.586)" fill="#003768"/>
      <path id="Path_223" data-name="Path 223" d="M461.468,108.722H439.655L435.433,131.3H420.4L441.574,29.4h18.039l21.174,101.9H465.754ZM441.894,95.736h17.4c-2.3-12.794-7.612-39.6-8.764-51.751C449.506,56.011,444.133,83.07,441.894,95.736Z" transform="translate(-335.832 -27.586)" fill="#003768"/>
      <path id="Path_224" data-name="Path 224" d="M529.267,42.578H511.1V29.4h50.792V42.578H543.66V131.3H529.267Z" transform="translate(-368.512 -27.586)" fill="#003768"/>
      <path id="Path_225" data-name="Path 225" d="M607.6,29.4h25.844c19,0,27.763,5.949,27.763,32.432,0,16.44-4.542,25.4-13.5,29.618L662.422,131.3H646.749L633.891,93.817h-11.9V131.3H607.6V29.4Zm14.457,13.178V80.7c13.625,0,25.716,2.943,24.756-18.807C647.581,39.507,635.811,42.578,622.057,42.578Z" transform="translate(-403.282 -27.586)" fill="#003768"/>
      <path id="Path_226" data-name="Path 226" d="M715,29.4h14.457V131.3H715Z" transform="translate(-441.979 -27.586)" fill="#003768"/>
      <path id="Path_227" data-name="Path 227" d="M801.909,100.841h14.265c0,22.581-8,31.217-26.8,31.217-19.447,0-27.571-9.851-27.571-35.567V62.139c0-25.268,8.124-35.439,27.571-35.439,18.679,0,26.8,8.636,26.8,31.217H801.909c0-13.306-3.582-18.039-12.538-18.039-9.4,0-13.178,5.821-13.178,20.982V97.9c0,15.033,3.774,20.982,13.178,20.982C798.2,118.88,801.909,114.466,801.909,100.841Z" transform="translate(-458.841 -26.613)" fill="#003768"/>
      <path id="Path_228" data-name="Path 228" d="M888.02,84.032c-32.5-2.175-31.665-60,3.135-57.381,19.447,0,26.8,8.764,26.8,29.17H903.373c0-11.259-3.582-15.992-12.218-15.992-18.039-.192-16.312,32.177,3.135,32.624,19.255,4.094,25.076,12.41,25.076,29.17,0,22.133-9.723,30.449-28.083,30.449-19,0-28.083-7.676-28.083-30.449h14.713c0,12.986,4.414,17.272,13.306,17.272,9.851,0,13.625-4.99,13.625-17.08C904.972,92.028,901.646,87.038,888.02,84.032Z" transform="translate(-495.376 -26.565)" fill="#003768"/>
    </g>
  </g>
</svg>
