<svg width="32" height="32" viewBox="0 0 32 32" fill="none" xmlns="http://www.w3.org/2000/svg">
<path d="M25.5072 20.4058H26.8985C27.6365 20.4058 28.3443 20.1126 28.8661 19.5908C29.388 19.069 29.6812 18.3612 29.6812 17.6232V5.10146C29.6812 4.36346 29.388 3.65569 28.8661 3.13385C28.3443 2.61201 27.6365 2.31885 26.8985 2.31885H14.3768C13.6388 2.31885 12.931 2.61201 12.4092 3.13385C11.8874 3.65569 11.5942 4.36346 11.5942 5.10146V6.49276M17.1594 12.058H4.63768C3.10088 12.058 1.85507 13.3038 1.85507 14.8406V27.3623C1.85507 28.8991 3.10088 30.1449 4.63768 30.1449H17.1594C18.6962 30.1449 19.942 28.8991 19.942 27.3623V14.8406C19.942 13.3038 18.6962 12.058 17.1594 12.058Z" stroke="#ffffff" stroke-width="1.5" stroke-linecap="round" stroke-linejoin="round"/>
<path d="M20.7764 6.21436H25.7851V11.2231" stroke="#ffffff"/>
</svg>
